<svg xmlns="http://www.w3.org/2000/svg" width="512" height="512" viewBox="0 0 64 64" role="img" aria-label="Freeway Life">
  <defs>
    <linearGradient id="surface" x1="8" y1="4" x2="58" y2="61" gradientUnits="userSpaceOnUse">
      <stop offset="0" stop-color="#13263a" />
      <stop offset="0.48" stop-color="#02050c" />
      <stop offset="1" stop-color="#001b18" />
    </linearGradient>
    <linearGradient id="rim" x1="10" y1="6" x2="55" y2="58" gradientUnits="userSpaceOnUse">
      <stop offset="0" stop-color="#f8fafc" stop-opacity="0.7" />
      <stop offset="0.42" stop-color="#22d3ee" stop-opacity="0.38" />
      <stop offset="1" stop-color="#34d399" stop-opacity="0.62" />
    </linearGradient>
    <linearGradient id="route" x1="12" y1="51" x2="54" y2="11" gradientUnits="userSpaceOnUse">
      <stop offset="0" stop-color="#ff914d" />
      <stop offset="0.42" stop-color="#34d399" />
      <stop offset="1" stop-color="#67e8f9" />
    </linearGradient>
    <radialGradient id="spark" cx="0" cy="0" r="1" gradientTransform="matrix(23 -26 26 23 45 14)" gradientUnits="userSpaceOnUse">
      <stop stop-color="#ecfeff" />
      <stop offset="0.42" stop-color="#67e8f9" stop-opacity="0.55" />
      <stop offset="1" stop-color="#67e8f9" stop-opacity="0" />
    </radialGradient>
    <filter id="depth" x="-30%" y="-30%" width="160%" height="160%">
      <feDropShadow dx="0" dy="6" stdDeviation="5" flood-color="#000000" flood-opacity="0.45" />
    </filter>
    <filter id="glow" x="-45%" y="-45%" width="190%" height="190%">
      <feGaussianBlur stdDeviation="2.4" result="blur" />
      <feMerge>
        <feMergeNode in="blur" />
        <feMergeNode in="SourceGraphic" />
      </feMerge>
    </filter>
    <clipPath id="clip">
      <rect x="5" y="5" width="54" height="54" rx="17" />
    </clipPath>
    <mask id="road-mask">
      <rect width="64" height="64" fill="black" />
      <path d="M18.8 50.2V21.4c0-5 4-9 9-9h20.6c2.8 0 5 2.2 5 5s-2.2 5-5 5H30.6c-1.2 0-2.1 0.9-2.1 2.1v5.6h15c2.7 0 4.8 2.1 4.8 4.8s-2.1 4.8-4.8 4.8h-15v10.5c0 2.7-2.2 5-4.9 5s-4.8-2.3-4.8-5Z" fill="white" />
    </mask>
  </defs>
  <rect x="5" y="5" width="54" height="54" rx="17" fill="url(#surface)" />
  <g clip-path="url(#clip)">
    <circle cx="46" cy="14" r="23" fill="url(#spark)" opacity="0.85" />
    <path d="M-2 49C16 41 30 47 66 29" stroke="#34d399" stroke-width="9" stroke-opacity="0.08" />
    <path d="M10 63C23 47 38 39 59 37" stroke="#67e8f9" stroke-width="4" stroke-opacity="0.12" />
  </g>
  <rect x="6.5" y="6.5" width="51" height="51" rx="15.5" fill="none" stroke="url(#rim)" stroke-width="1.4" />
  <path d="M18.8 50.2V21.4c0-5 4-9 9-9h20.6c2.8 0 5 2.2 5 5s-2.2 5-5 5H30.6c-1.2 0-2.1 0.9-2.1 2.1v5.6h15c2.7 0 4.8 2.1 4.8 4.8s-2.1 4.8-4.8 4.8h-15v10.5c0 2.7-2.2 5-4.9 5s-4.8-2.3-4.8-5Z" fill="#f8feff" filter="url(#depth)" />
  <path d="M14 48C24.5 46 33.8 39.8 39.6 30.2C44.9 21.4 49 16.4 55 14" stroke="url(#route)" stroke-width="4.4" stroke-linecap="round" filter="url(#glow)" />
  <path d="M16 48.4C27.4 43 35.2 35.6 40.4 23.4" stroke="#02050c" stroke-width="1.7" stroke-linecap="round" stroke-dasharray="4.5 4.5" opacity="0.78" mask="url(#road-mask)" />
  <path d="M49.2 12.4L55 14L51.7 19" fill="none" stroke="#ecfeff" stroke-width="2.2" stroke-linecap="round" stroke-linejoin="round" />
  <circle cx="13" cy="51" r="2.2" fill="#ff914d" />
</svg>
